PathFileType	4	(X/Y/Z)	25_coords_data.trc
DataRate	CameraRate	NumFrames	NumMarkers	Units	OrigDataRate	OrigDataStartFrame	OrigNumFrames
30.0	30.0	6	21	m	30.0	22	65
Frame#	Time	THUMB_TIP	THUMB_IP	THUMB_MCP	THUMB_CMC	INDEX_TIP	INDEX_DIP	INDEX_PIP	INDEX_MCP	MIDDLE_TIP	MIDDLE_DIP	MIDDLE_PIP	MIDDLE_MCP	RING_TIP	RING_DIP	RING_PIP	RING_MCP	PINKY_TIP	PINKY_DIP	PINKY_PIP	PINKY_MCP	WRIST
X1	Y1	Z1	X2	Y2	Z2	X3	Y3	Z3	X4	Y4	Z4	X5	Y5	Z5	X6	Y6	Z6	X7	Y7	Z7	X8	Y8	Z8	X9	Y9	Z9	X10	Y10	Z10	X11	Y11	Z11	X12	Y12	Z12	X13	Y13	Z13	X14	Y14	Z14	X15	Y15	Z15	X16	Y16	Z16	X17	Y17	Z17	X18	Y18	Z18	X19	Y19	Z19	X20	Y20	Z20	X21	Y21	Z21
21	0.7	-0.017336700439453127	0.04940169906616211	0.90277001953125	-0.01780820083618164	0.024781299591064454	0.9074819946289062	-0.03538899993896484	0.00998760986328125	0.9289190063476562	-0.05221110153198242	0.021948299407958984	0.9521209716796875	-0.047272499084472654	0.013306099891662598	0.9109520263671875	-0.030681999206542968	0.01468019962310791	0.9011519775390625	-0.029432300567626954	0.012236800193786621	0.8788629760742187	-0.07105809783935547	0.011085499763488769	0.8886179809570313	-0.03391460037231445	0.028499700546264647	0.9140050048828126	-0.03246920013427734	0.031011299133300783	0.909426025390625	-0.029305999755859374	0.03386330032348633	0.8838809814453125	-0.07398960113525391	0.034507801055908206	0.887906005859375	-0.04041799926757812	0.04111489868164062	0.9243579711914063	-0.03466540145874023	0.0442067985534668	0.9161710205078125	-0.02875	0.050961101531982425	0.8919730224609375	-0.07102780151367187	0.05434709930419922	0.8956619873046875	-0.04108729934692383	0.05458140182495117	0.9269249877929687	-0.028817699432373046	0.05642499923706055	0.9186110229492187	-0.0286072998046875	0.06402230072021485	0.9025070190429687	-0.0615702018737793	0.06891500091552734	0.9078820190429687	-0.08566079711914062	0.03580400085449219	0.9749320068359375
22	0.7333333333333333	-0.017293800354003908	0.049415699005126955	0.90277197265625	-0.01777939987182617	0.024807300567626953	0.907489013671875	-0.03543610000610352	0.0101274995803833	0.9289130249023437	-0.0522406005859375	0.02202370071411133	0.9520180053710937	-0.04720500183105469	0.013458900451660157	0.9104249877929688	-0.03089780044555664	0.014803600311279298	0.9011959838867187	-0.029411100387573243	0.01233549976348877	0.8789249877929688	-0.07114810180664062	0.011218199729919434	0.8885499877929688	-0.03433840179443359	0.028585500717163086	0.9143499755859374	-0.032314300537109375	0.03110059928894043	0.9095139770507813	-0.029353599548339843	0.03394810104370117	0.8838939819335937	-0.07404499816894532	0.03466680145263672	0.8880460205078125	-0.04032339859008789	0.04091550064086914	0.9254949951171875	-0.034716598510742186	0.04433929824829102	0.9161649780273438	-0.028768299102783203	0.051026298522949216	0.8920869750976562	-0.07113079833984375	0.05451010131835937	0.8959219970703125	-0.04050320053100586	0.05427510070800781	0.9276640014648437	-0.028761499404907225	0.05641049957275391	0.918719970703125	-0.028551000595092774	0.0640886001586914	0.902781982421875	-0.061500499725341794	0.06904789733886718	0.9079869995117188	-0.08543129730224609	0.035928298950195316	0.97489501953125
23	0.7666666666666667	-0.017267000198364257	0.049446800231933596	0.9026719970703125	-0.017825000762939452	0.02499769973754883	0.9075050048828125	-0.035461299896240236	0.010058500289916993	0.9289340209960938	-0.052216400146484376	0.022072999954223634	0.9522520141601563	-0.04740900039672852	0.013602100372314452	0.9107839965820312	-0.030747900009155272	0.014827199935913086	0.901155029296875	-0.02947220039367676	0.012449399948120117	0.8789710083007812	-0.07123919677734375	0.011326800346374512	0.8889409790039062	-0.0339364013671875	0.028555099487304687	0.9141329956054688	-0.032326900482177734	0.031161199569702147	0.909551025390625	-0.02942449951171875	0.03397470092773437	0.8838109741210938	-0.07409829711914062	0.03479690170288086	0.8882589721679688	-0.041315101623535154	0.041238899230957034	0.925916015625	-0.0346526985168457	0.04438970184326172	0.9164429931640625	-0.02880900001525879	0.05115850067138672	0.8921619873046875	-0.07106430053710938	0.054572700500488285	0.896072998046875	-0.04074850082397461	0.05438249969482422	0.9276220092773437	-0.028882400512695312	0.05649140167236328	0.9189320068359375	-0.02861310005187988	0.06416649627685547	0.9028610229492188	-0.06151210021972656	0.06905740356445313	0.9079340209960938	-0.08561399841308594	0.03586069869995117	0.9748880004882813
24	0.8	-0.017333200454711914	0.04970389938354492	0.9031259765625	-0.017871400833129884	0.02517620086669922	0.9077880249023438	-0.03553290176391601	0.010276100158691407	0.9291920166015625	-0.05234980010986328	0.02214870071411133	0.9523250122070313	-0.04735139846801758	0.013741200447082519	0.9111539916992187	-0.030767099380493164	0.015055999755859376	0.9014010009765625	-0.029493000030517576	0.012611100196838379	0.87914697265625	-0.07111930084228515	0.011467300415039062	0.8888289794921875	-0.03389250183105469	0.028739299774169922	0.9140830078125	-0.03228829956054687	0.03131629943847656	0.90972998046875	-0.029329399108886718	0.03419990158081055	0.8840679931640625	-0.07405770111083984	0.0349561996459961	0.888302001953125	-0.04065129852294922	0.04123709869384766	0.9245560302734375	-0.03455830001831055	0.044518798828125	0.916343017578125	-0.028842300415039063	0.05127529907226563	0.8922360229492188	-0.07108049774169922	0.05474769973754883	0.896219970703125	-0.04092649841308594	0.054306598663330076	0.9280349731445312	-0.028943899154663087	0.05671720123291016	0.9190360107421875	-0.028611299514770507	0.06431179809570313	0.902906982421875	-0.06149269866943359	0.06928749847412109	0.9082130126953125	-0.08579470062255859	0.036027000427246096	0.9749149780273437
25	0.8333333333333334	-0.017140600204467775	0.049859600067138674	0.9029959716796875	-0.017742200851440428	0.025169399261474608	0.9079650268554688	-0.035463001251220705	0.010471400260925292	0.9293930053710937	-0.052351398468017576	0.02227350044250488	0.952625	-0.047123600006103515	0.013733099937438965	0.9112329711914062	-0.030661399841308595	0.015147800445556641	0.9015239868164062	-0.029355100631713867	0.012772600173950195	0.8792509765625	-0.07111710357666015	0.011662300109863282	0.8889970092773437	-0.033826198577880856	0.028980600357055665	0.9144619750976563	-0.0323390007019043	0.03145199966430664	0.9099039916992188	-0.029292900085449217	0.03434299850463867	0.88414501953125	-0.07403810119628906	0.03508620071411133	0.8884979858398437	-0.0382775993347168	0.040893199920654294	0.9220900268554687	-0.03458190155029297	0.044661800384521486	0.9167470092773438	-0.028763500213623047	0.051463401794433594	0.8924979858398437	-0.07111009979248047	0.05488600158691406	0.896260009765625	-0.04077280044555664	0.05496419906616211	0.9275289916992188	-0.028838899612426756	0.05688330078125	0.9192990112304688	-0.02852829933166504	0.0644542007446289	0.903302978515625	-0.06139739990234375	0.06938909912109376	0.908239013671875	-0.08576480102539062	0.03615610122680664	0.9752069702148437
26	0.8666666666666667	-0.01725090026855469	0.04993920135498047	0.9032369995117188	-0.017875200271606446	0.02538610076904297	0.9081849975585937	-0.035539600372314455	0.010448599815368652	0.92952099609375	-0.05235800170898437	0.022330299377441406	0.9527830200195313	-0.04728179931640625	0.013818099975585937	0.9113099975585938	-0.03077869987487793	0.015315199851989746	0.9016580200195312	-0.02938839912414551	0.01281350040435791	0.8793560180664063	-0.07107839965820313	0.011712800025939942	0.8891749877929688	-0.033923599243164064	0.02894339942932129	0.9146339721679687	-0.0324182014465332	0.031541299819946286	0.9100540161132813	-0.029269599914550783	0.034499401092529296	0.8844660034179688	-0.07405130004882812	0.03517890167236328	0.8887260131835938	-0.041295501708984376	0.04130879974365234	0.926469970703125	-0.03462599945068359	0.04474980163574219	0.916948974609375	-0.028795799255371093	0.05150239944458008	0.8924979858398437	-0.0709697036743164	0.05496939849853515	0.8962069702148437	-0.041213699340820316	0.05499359893798828	0.9277880249023438	-0.028989500045776367	0.05690890121459961	0.919427978515625	-0.028538700103759765	0.0645270004272461	0.903364013671875	-0.0613848991394043	0.06947530364990234	0.9083699951171875	-0.0855467987060547	0.03615879821777344	0.975427978515625
